{"title":"48 Hours - Live To Tell","uid":15959946,"size":344853748,"categoryP":"video","categoryS":"tv_shows","magnet":"?xt=urn:btih:c0cdd9bede32558b5633c6c53a971a5a8b75937e&amp;dn=48+Hours+-+Live+To+Tell&amp;tr=udp%3A%2F%2Ftracker.leechers-paradise.org%3A6969&amp;tr=udp%3A%2F%2Fzer0day.ch%3A1337&amp;tr=udp%3A%2F%2Fopen.demonii.com%3A1337&amp;tr=udp%3A%2F%2Ftracker.coppersurfer.tk%3A6969&amp;tr=udp%3A%2F%2Fexodus.desync.com%3A6969","seeders":15,"leechers":9,"uploader":"Bullrout","files":1,"time":1475654228,"description":"48 Hours - Live To Tell\r\n\r\nA shipwreck on the high seas forces a mother to make an unthinkable choice: save her kids or risk it all to save her husband.\r\n\r\nComplete name : 48 Hours - Live To Tell.mp4\r\nFormat : MPEG-4\r\nFormat profile : Base Media / Version 2\r\nCodec ID : mp42 (mp42/isom/avc1)\r\nFile size : 329 MiB\r\nDuration : 42 min 38 s\r\nOverall bit rate mode : Variable\r\nOverall bit rate : 1 078 kb/s\r\n\r\nVideo\r\nID : 2\r\nFormat : AVC\r\nFormat/Info : Advanced Video Codec\r\nFormat profile :   \r\nFormat settings, CABAC : Yes\r\nFormat settings, ReFrames : 3 frames\r\nCodec ID : avc1\r\nCodec ID/Info : Advanced Video Coding\r\nDuration : 42 min 38 s\r\nBit rate mode : Variable\r\nBit rate : 947 kb/s\r\nMaximum bit rate : 1 000 kb/s\r\nWidth : 720 pixels\r\nHeight : 404 pixels\r\nDisplay aspect ratio : 16:9\r\nOriginal display aspect ratio : 16:9\r\nFrame rate mode : Constant\r\nFrame rate : 25.000 FPS\r\nStandard : PAL\r\nColor space : YUV\r\nChroma subsampling : 4:2:0\r\nBit depth : 8 bits\r\nScan type : Progressive\r\nBits/(Pixel*Frame) : 0.130\r\nStream size : 289 MiB (88%)\r\nWriting library : x264 core 112\r\nColor range : Limited\r\nColor primaries : BT.601 PAL\r\nTransfer characteristics : BT.470 System B, BT.470 System G\r\nMatrix coefficients : BT.601\r\n\r\nAudio\r\nID : 1\r\nFormat : AAC\r\nFormat/Info : Advanced Audio Codec\r\nFormat profile : LC\r\nCodec ID : 40\r\nDuration : 42 min 38 s\r\nBit rate mode : Variable\r\nBit rate : 128 kb/s\r\nMaximum bit rate : 576 kb/s\r\nChannel(s) : 2 channels\r\nChannel positions : Front: L R\r\nSampling rate : 48.0 kHz\r\nFrame rate : 46.875 FPS (1024 spf)\r\nCompression mode : Lossy\r\nStream size : 39.1 MiB (12%)","torrent":{"xt":"urn:btih:c0cdd9bede32558b5633c6c53a971a5a8b75937e","amp;dn":"48+Hours+-+Live+To+Tell","amp;tr":["udp%3A%2F%2Ftracker.leechers-paradise.org%3A6969","udp%3A%2F%2Fzer0day.ch%3A1337","udp%3A%2F%2Fopen.demonii.com%3A1337","udp%3A%2F%2Ftracker.coppersurfer.tk%3A6969","udp%3A%2F%2Fexodus.desync.com%3A6969"],"infoHash":"c0cdd9bede32558b5633c6c53a971a5a8b75937e","infoHashBuffer":{"type":"Buffer","data":[192,205,217,190,222,50,85,139,86,51,198,197,58,151,26,90,139,117,147,126]},"announce":[],"urlList":[]}}